<?xml version="1.0" standalone="no"?>
<!DOCTYPE svg PUBLIC "-//W3C//DTD SVG 20010904//EN"
 "http://www.w3.org/TR/2001/REC-SVG-20010904/DTD/svg10.dtd">
<svg version="1.0" xmlns="http://www.w3.org/2000/svg"
 width="130.000000pt" height="130.000000pt" viewBox="0 0 130.000000 130.000000"
 preserveAspectRatio="xMidYMid meet">
<metadata>
Created by potrace 1.11, written by Peter Selinger 2001-2013
</metadata>
<g transform="translate(0.000000,130.000000) scale(0.100000,-0.100000)"
fill="#000000" stroke="none">
<path d="M530 1232 c-131 -44 -228 -140 -270 -268 -19 -55 -22 -82 -18 -153 7
-120 41 -192 141 -299 86 -91 81 -73 78 -270 -2 -86 16 -128 63 -147 18 -8 38
-21 46 -29 18 -22 142 -22 160 0 8 8 28 21 46 29 48 20 58 47 60 165 2 58 3
120 3 138 1 26 15 48 75 112 99 105 137 183 144 295 11 185 -87 344 -255 414
-79 33 -197 38 -273 13z"/>
</g>
</svg>
